<?xml version="1.0" encoding="UTF-8"?>
<svg xmlns="http://www.w3.org/2000/svg" width="2048" height="2048" viewBox="0 0 2048 2048">
  <defs>
    <linearGradient id="bg" x1="0" y1="0" x2="0" y2="1">
      <stop offset="0%" stop-color="#63c35a"/>
      <stop offset="50%" stop-color="#44a7a1"/>
      <stop offset="100%" stop-color="#2c74ff"/>
    </linearGradient>
  </defs>

  <!-- background (rounded square) -->
  <rect x="169" y="105" width="1709" height="1837" rx="230" ry="230" fill="url(#bg)"/>

  <!-- Outer D outline -->
  <path d="
    M 520 500
    L 520 1548
    Q 520 1630 600 1630
    L 1180 1630
    Q 1590 1630 1590 1130
    Q 1590 630 1180 630
    L 600 630
    Q 520 630 520 500
    Z"
    fill="none" stroke="#ffffff" stroke-width="44" stroke-linejoin="round" stroke-linecap="round"/>

  <!-- Inner D outline -->
  <path d="
    M 720 720
    L 720 1430
    Q 720 1490 780 1490
    L 1120 1490
    Q 1385 1490 1385 1075
    Q 1385 660 1120 660
    L 780 660
    Q 720 660 720 720
    Z"
    fill="none" stroke="#ffffff" stroke-width="34" stroke-linejoin="round" stroke-linecap="round"/>

  <!-- Text -->
  <text x="1024" y="1040" text-anchor="middle" font-family="Inter, Arial, Helvetica, sans-serif"
        font-size="120" letter-spacing="10" fill="#ffffff" opacity="0.95">MY TASKS</text>

  <text x="1024" y="1340" text-anchor="middle" font-family="Inter, Arial, Helvetica, sans-serif"
        font-size="420" font-weight="700" fill="#ffffff">SD</text>
</svg>
